<?xml version="1.0" encoding="UTF-8"?> <!-- Generator: Adobe Illustrator 22.1.0, SVG Export Plug-In . SVG Version: 6.00 Build 0) --> <svg xmlns="http://www.w3.org/2000/svg" xmlns:xlink="http://www.w3.org/1999/xlink" id="Layer_1" x="0px" y="0px" viewBox="0 0 39 41.3" style="enable-background:new 0 0 39 41.3;" xml:space="preserve"> <style type="text/css"> .st0{fill:none;stroke:#D63E22;stroke-miterlimit:10;} </style> <path class="st0" d="M24.4,28.4c-0.1-1.6-0.1-2.7-0.1-4.2c0.7-0.4,2-2.8,2.3-4.8c0.6,0,1.5-0.6,1.7-2.8c0.1-1.2-0.4-1.8-0.8-2 c0.9-2.8,2.9-11.4-3.6-12.3c-0.7-1.2-2.4-1.7-4.6-1.7c-8.8,0.2-9.9,6.6-8,14c-0.3,0.2-0.9,0.9-0.8,2c0.3,2.2,1.2,2.7,1.7,2.8 c0.2,2,1.6,4.5,2.3,4.8c0,1.5,0.1,2.6-0.1,4.2c-1.7,4.7-13.5,3.4-14.1,12.4h37.9C37.9,31.8,26.2,33.1,24.4,28.4z"></path> <line class="st0" x1="10.6" y1="7.9" x2="28.3" y2="7.7"></line> <line class="st0" x1="10.6" y1="10" x2="28.3" y2="9.9"></line> <polyline class="st0" points="30.8,41 30.8,32.7 28.6,31.7 28.6,36.7 19.1,36.7 19.3,36.7 9.8,36.7 9.8,31.9 7.6,33 7.6,41 "></polyline> </svg> 